<svg width="88" height="30" viewBox="0 0 88 30" fill="none" xmlns="http://www.w3.org/2000/svg">
    <g clip-path="url(#clip0_210_47)">
        <path
            d="M20.2811 15.9409C20.2452 12.1448 23.3645 10.3209 23.5048 10.234C21.7491 7.6538 19.0219 7.29915 18.0505 7.25934C15.7298 7.0205 13.5208 8.6345 12.3407 8.6345C11.1606 8.6345 9.34364 7.29191 7.41878 7.33172C4.88589 7.36791 2.55088 8.81182 1.24485 11.0917C-1.38159 15.6731 0.57565 22.4765 3.14093 26.2003C4.39658 28.0205 5.88609 30.0724 7.85053 29.9964C9.743 29.9204 10.4554 28.766 12.7364 28.766C15.0175 28.766 15.6615 29.9964 17.6583 29.9602C19.6911 29.9204 20.9791 28.1001 22.224 26.2726C23.6559 24.1556 24.2496 22.111 24.2856 22.0024C24.2388 21.9843 20.3243 20.4753 20.2811 15.9409Z"
            fill="black" />
        <path
            d="M16.5285 4.79132C17.5719 3.52111 18.2735 1.75875 18.0828 0C16.5825 0.0615199 14.7656 1.00603 13.6898 2.27624C12.7256 3.39807 11.8801 5.193 12.1104 6.91556C13.7762 7.04584 15.4888 6.0579 16.5285 4.79132ZM33.4385 19.6719L31.7115 24.9373H29.4916L35.1439 8.20386H37.7344L43.4082 24.9373H41.1127L39.3354 19.6719H33.4385ZM38.8929 17.9819L37.2666 13.1653C36.8961 12.0724 36.6514 11.0808 36.4031 10.111H36.3564C36.1081 11.1025 35.8383 12.1194 35.5181 13.1399L33.8918 17.9783L38.8929 17.9819ZM45.092 16.842C45.092 15.304 45.0452 14.0591 44.9912 12.9192H46.9413L47.042 14.9819H47.0888C47.9775 13.5163 49.3842 12.6478 51.3343 12.6478C54.2234 12.6478 56.3929 15.1049 56.3929 18.7563C56.3929 23.0772 53.7772 25.2087 50.9637 25.2087C49.3842 25.2087 48.0027 24.5139 47.2867 23.3233H47.2399V29.8516H45.092V16.842ZM47.2363 20.0446C47.2363 20.3703 47.2831 20.6635 47.337 20.9385C47.7328 22.4511 49.0388 23.497 50.5967 23.497C52.8922 23.497 54.227 21.6116 54.227 18.854C54.227 16.4439 52.9677 14.3884 50.6723 14.3884C49.1935 14.3884 47.812 15.456 47.3874 17.0953C47.3119 17.3667 47.2399 17.6924 47.2399 17.9891L47.2363 20.0446ZM58.6379 16.842C58.6379 15.304 58.5912 14.0591 58.5372 12.9192H60.4872L60.588 14.9819H60.6348C61.5234 13.5163 62.9302 12.6478 64.8802 12.6478C67.7693 12.6478 69.9388 15.1049 69.9388 18.7563C69.9388 23.0772 67.3232 25.2087 64.5096 25.2087C62.9302 25.2087 61.5486 24.5139 60.8326 23.3233H60.7859V29.8516H58.6379V16.842ZM60.7859 20.0446C60.7859 20.3703 60.8326 20.6635 60.8866 20.9385C61.2824 22.4511 62.5884 23.497 64.1463 23.497C66.4417 23.497 67.7765 21.6116 67.7765 18.854C67.7765 16.4439 66.5173 14.3884 64.2218 14.3884C62.7431 14.3884 61.3615 15.456 60.937 17.0953C60.8614 17.3667 60.7895 17.6924 60.7895 17.9891L60.7859 20.0446ZM72.1875 7.31001H74.3606V24.9337H72.1875V7.31001ZM78.7284 19.3245C78.7752 22.2774 80.6533 23.497 82.8228 23.497C84.377 23.497 85.3161 23.2256 86.1292 22.8782L86.4998 24.4415C85.737 24.7889 84.4274 25.187 82.5277 25.187C78.8507 25.187 76.6524 22.7551 76.6524 19.1291C76.6524 15.503 78.7752 12.6478 82.2543 12.6478C86.1544 12.6478 87.1906 16.0965 87.1906 18.3076C87.1906 18.7563 87.1438 19.1001 87.115 19.3245H78.7284ZM85.0966 17.7612C85.1218 16.3715 84.5282 14.2111 82.0852 14.2111C79.8869 14.2111 78.9263 16.2485 78.7536 17.7612H85.0966Z"
            fill="black" />
    </g>
    <defs>
        <clipPath id="clip0_210_47">
            <rect width="87.1942" height="30" fill="white" />
        </clipPath>
    </defs>
</svg>
    