<svg width="118" height="30" viewBox="0 0 118 30" fill="none" xmlns="http://www.w3.org/2000/svg">
    <g clip-path="url(#clip0_210_37)">
        <path fill-rule="evenodd" clip-rule="evenodd"
            d="M37.7096 23.6215L39.1806 20.1834C40.7695 21.3784 42.8865 21.9997 44.9752 21.9997C46.517 21.9997 47.493 21.4021 47.493 20.4963C47.4694 17.9639 38.2565 19.9462 38.1858 13.5963C38.1622 10.3715 41.01 7.88649 45.0459 7.88649C47.4458 7.88649 49.841 8.48403 51.5525 9.84507L50.1757 13.3544C48.6104 12.349 46.6631 11.6329 44.8102 11.6329C43.5513 11.6329 42.7215 12.2305 42.7215 12.994C42.7451 15.479 52.0287 14.1179 52.123 20.1834C52.123 23.4793 49.3459 25.7983 45.3571 25.7983C42.4339 25.7935 39.7511 25.1012 37.7096 23.6215ZM94.1985 18.9409C93.4629 20.2308 92.0862 21.1129 90.4926 21.1129C88.1398 21.1129 86.2445 19.2017 86.2445 16.84C86.2445 14.4783 88.1446 12.5672 90.4926 12.5672C92.0815 12.5672 93.4629 13.4492 94.1985 14.7392L98.258 12.4723C96.7398 9.75023 93.8165 7.88649 90.4926 7.88649C85.575 7.88649 81.5862 11.8985 81.5862 16.8448C81.5862 21.791 85.575 25.803 90.4926 25.803C93.8401 25.803 96.7398 23.963 98.258 21.2172L94.1985 18.9409ZM54.1645 0.455261H59.2471V25.4616H54.1645V0.455261ZM100.252 0.455261V25.4616H105.335V17.9592L111.365 25.4616H117.872L110.201 16.5507L117.301 8.23742H111.078L105.33 15.1375V0.455261H100.252Z"
            fill="black" />
        <path
            d="M74.3489 18.9883C73.6134 20.2071 72.0952 21.1129 70.3837 21.1129C68.0309 21.1129 66.1356 19.2017 66.1356 16.84C66.1356 14.4783 68.0357 12.5672 70.3837 12.5672C72.0952 12.5672 73.6134 13.5204 74.3489 14.7629V18.9883ZM74.3489 8.24216V10.2719C73.5191 8.86341 71.4539 7.88174 69.2898 7.88174C64.8248 7.88174 61.3123 11.8463 61.3123 16.8163C61.3123 21.7863 64.8248 25.7983 69.2898 25.7983C71.4492 25.7983 73.5143 24.8214 74.3489 23.4081V25.4379H79.4315V8.24216H74.3489Z"
            fill="black" />
        <path fill-rule="evenodd" clip-rule="evenodd"
            d="M6.29434 18.9646C6.29434 20.7098 4.89402 22.1182 3.15895 22.1182C1.42388 22.1182 0.0235596 20.705 0.0235596 18.9646C0.0235596 17.2241 1.42388 15.8109 3.15895 15.8109H6.29434V18.9646ZM7.85968 18.9646C7.85968 17.2194 9.25999 15.8109 10.9951 15.8109C12.7301 15.8109 14.1305 17.2194 14.1305 18.9646V26.8464C14.1305 28.5915 12.7301 30 10.9951 30C9.25999 30 7.85968 28.5915 7.85968 26.8464V18.9646Z"
            fill="black" />
        <path fill-rule="evenodd" clip-rule="evenodd"
            d="M10.9951 6.3073C9.26001 6.3073 7.85969 4.89883 7.85969 3.15365C7.85969 1.40847 9.26001 0 10.9951 0C12.7302 0 14.1305 1.40847 14.1305 3.15365V6.3073H10.9951ZM10.9951 7.90547C12.7302 7.90547 14.1305 9.31394 14.1305 11.0591C14.1305 12.8043 12.7302 14.2128 10.9951 14.2128H3.13539C1.40032 14.2128 0 12.7996 0 11.0591C0 9.31868 1.40032 7.90547 3.13539 7.90547H10.9951Z"
            fill="black" />
        <path fill-rule="evenodd" clip-rule="evenodd"
            d="M23.5555 11.0591C23.5555 9.31394 24.9558 7.90547 26.6909 7.90547C28.4259 7.90547 29.8263 9.31394 29.8263 11.0591C29.8263 12.8043 28.4259 14.2128 26.6909 14.2128H23.5555V11.0591ZM21.9901 11.0591C21.9901 12.8043 20.5898 14.2128 18.8547 14.2128C17.1197 14.2128 15.7194 12.8043 15.7194 11.0591V3.15365C15.7194 1.40847 17.1197 0 18.8547 0C20.5898 0 21.9901 1.40847 21.9901 3.15365V11.0591Z"
            fill="black" />
        <path fill-rule="evenodd" clip-rule="evenodd"
            d="M18.8547 23.6927C20.5898 23.6927 21.9901 25.1012 21.9901 26.8464C21.9901 28.5915 20.5898 30 18.8547 30C17.1197 30 15.7194 28.5915 15.7194 26.8464V23.6927H18.8547ZM18.8547 22.1182C17.1197 22.1182 15.7194 20.7098 15.7194 18.9646C15.7194 17.2194 17.1197 15.8109 18.8547 15.8109H26.7144C28.4495 15.8109 29.8498 17.2194 29.8498 18.9646C29.8498 20.7098 28.4495 22.1182 26.7144 22.1182H18.8547Z"
            fill="black" />
    </g>
    <defs>
        <clipPath id="clip0_210_37">
            <rect width="117.872" height="30" fill="white" />
        </clipPath>
    </defs>
</svg>
    